<?xml version="1.0" standalone="no"?>
<!DOCTYPE svg PUBLIC "-//W3C//DTD SVG 20010904//EN"
 "http://www.w3.org/TR/2001/REC-SVG-20010904/DTD/svg10.dtd">
<svg version="1.0" xmlns="http://www.w3.org/2000/svg"
 width="300.000000pt" height="300.000000pt" viewBox="0 0 300.000000 300.000000"
 preserveAspectRatio="xMidYMid meet">
<metadata>
Created by potrace 1.11, written by Peter Selinger 2001-2013
</metadata>
<g transform="translate(0.000000,300.000000) scale(0.100000,-0.100000)"
fill="#000000" stroke="none">
<path d="M420 2674 c-19 -8 -45 -25 -58 -37 -48 -45 -52 -64 -52 -267 l0 -190
1190 0 1190 0 0 190 c0 203 -4 222 -52 267 -59 55 -10 53 -1140 53 -909 -1
-1047 -3 -1078 -16z"/>
<path d="M2351 1928 c-1 -17 -19 -18 -226 -18 l-225 0 0 -285 c0 -281 0 -285
21 -285 11 0 18 -4 14 -9 -3 -6 8 -20 26 -33 17 -13 37 -34 45 -48 7 -14 13
-19 14 -13 0 10 21 11 83 8 45 -3 117 -1 159 3 90 9 88 12 88 -105 l0 -73 -82
-2 -83 -2 80 -5 80 -6 6 -85 5 -85 2 87 2 87 153 4 152 3 -152 2 -153 2 1 78
c0 42 3 84 7 92 4 9 23 17 45 19 89 7 132 45 144 126 l6 45 63 0 c36 0 64 4
64 10 0 6 -3 9 -7 9 -5 -1 -34 -1 -66 0 l-59 1 7 73 c10 118 12 230 4 260 -7
24 -5 27 19 28 21 1 18 3 -12 9 -28 5 -51 20 -78 49 -35 37 -43 41 -88 41 -38
0 -50 4 -53 18 -4 16 -5 16 -6 0z m-103 -325 l-123 -123 -59 60 -60 59 24 26
24 25 38 -37 38 -37 97 96 97 97 23 -21 24 -22 -123 -123z"/>
<path d="M631 1258 c1 -167 14 -350 18 -245 1 38 14 48 29 22 4 -9 30 -34 58
-56 l49 -41 80 4 c44 3 87 7 95 9 13 3 15 -15 18 -113 4 -157 22 -155 22 2 0
96 3 120 14 120 15 0 76 64 76 80 0 6 41 10 95 10 l95 0 0 -180 0 -180 -132
-2 -133 -2 129 -5 c91 -4 131 -10 134 -18 2 -7 12 -13 23 -13 18 0 19 -9 19
-135 0 -83 4 -135 10 -135 6 0 10 47 10 122 0 110 1 120 15 102 19 -29 59 -36
192 -34 l111 1 6 -73 c4 -40 8 -93 9 -118 2 -25 4 10 5 76 l2 122 28 5 c35 7
72 42 72 67 0 11 6 21 13 21 6 1 59 4 117 8 l105 6 1 55 1 55 -4 -53 -4 -53
-106 3 -106 3 2 121 c3 131 -13 198 -50 209 -20 7 -27 25 -9 25 6 0 10 5 10
10 0 6 -6 10 -14 10 -8 0 -16 4 -18 10 -5 14 -429 15 -438 0 -4 -7 -37 -10
-91 -8 -69 2 -83 6 -80 18 3 8 7 59 9 113 l4 97 -61 62 c-34 34 -61 66 -61 70
0 4 -83 8 -185 8 l-185 0 1 -182z"/>
<path d="M2625 378 c-49 -51 -15 -49 -1114 -55 -564 -3 -1028 -7 -1030 -9 -5
-5 2078 1 2097 6 6 2 12 7 12 12 0 4 6 8 13 9 6 0 22 13 35 30 27 33 17 38
-13 7z"/>
</g>
</svg>
